<svg xmlns="http://www.w3.org/2000/svg"  viewBox="0 0 64 64" width="48px" height="48px"><path d="M 29 7 C 25.686 7 23 9.686 23 13 L 15 13 C 11.686 13 9 15.686 9 19 L 9 45 C 9 48.314 11.686 51 15 51 L 49 51 C 52.314 51 55 48.314 55 45 L 55 19 C 55 15.686 52.314 13 49 13 L 41 13 C 41 9.686 38.314 7 35 7 L 29 7 z M 29 11 L 35 11 C 36.104 11 37 11.895 37 13 L 27 13 C 27 11.895 27.896 11 29 11 z M 15 17 L 49 17 C 50.105 17 51 17.895 51 19 L 51 27.328125 C 47.860304 27.865386 40.276945 29 32 29 C 23.725715 29 16.142076 27.866066 13 27.328125 L 13 19 C 13 17.895 13.895 17 15 17 z M 13 31.384766 C 15.851521 31.855688 20.994182 32.574326 27 32.865234 L 27 33 C 27 34.105 27.895 35 29 35 L 34 35 C 35.105 35 36 34.105 36 33 L 36 32.917969 C 42.43805 32.665598 47.988855 31.881828 51 31.384766 L 51 45 C 51 46.105 50.105 47 49 47 L 15 47 C 13.895 47 13 46.105 13 45 L 13 31.384766 z"/></svg>