<svg xmlns="http://www.w3.org/2000/svg"  viewBox="0 0 64 64" width="48px" height="48px"><path d="M 20 10 C 16.686 10 14 12.686 14 16 L 14 48 C 14 51.314 16.686 54 20 54 L 44 54 C 47.314 54 50 51.314 50 48 L 50 28.65625 C 50 27.06425 49.367188 25.539062 48.242188 24.414062 L 35.585938 11.757812 C 34.459938 10.632812 32.93475 10 31.34375 10 L 20 10 z M 20 14 L 30 14 L 30 24 C 30 27.314 32.686 30 36 30 L 46 30 L 46 45.667969 L 39.388672 39.724609 C 38.371672 38.809609 36.829453 38.811516 35.814453 39.728516 L 29.121094 45.775391 L 25.742188 42.884766 C 24.740188 42.027766 23.262672 42.030625 22.263672 42.890625 L 18 46.5625 L 18 16 C 18 14.895 18.895 14 20 14 z M 34 15.828125 L 44.171875 26 L 36 26 C 34.895 26 34 25.105 34 24 L 34 15.828125 z M 25 32 C 23.343 32 22 33.343 22 35 C 22 36.657 23.343 38 25 38 C 26.657 38 28 36.657 28 35 C 28 33.343 26.657 32 25 32 z"/></svg>