<svg xmlns="http://www.w3.org/2000/svg"  viewBox="0 0 64 64" width="48px" height="48px"><path d="M 32 6 C 23.658 6 17 12.716 17 21 C 17 26.755 20.244 31.745719 25 34.261719 L 25 51.679688 C 25 52.773687 25.501375 53.809281 26.359375 54.488281 L 29.980469 57.351562 C 30.528469 57.785562 31.18675 58 31.84375 58 C 32.57975 58 33.313672 57.731219 33.888672 57.199219 L 40.417969 51.144531 C 40.900969 50.696531 41.041531 49.990625 40.769531 49.390625 L 39 45.490234 L 39 45.394531 L 41.404297 42.412109 C 42.127297 41.515109 42.164141 40.246594 41.494141 39.308594 L 39 35.816406 L 39 34.261719 C 43.756 31.745719 47 26.755 47 21 C 47 12.716 40.342 6 32 6 z M 32 10 C 38.065 10 43 14.935 43 21 C 43 25.084 40.751859 28.810609 37.130859 30.724609 L 35 31.851562 L 35 37.097656 L 37.607422 40.748047 L 35 43.982422 L 35 46.355469 L 36.392578 49.423828 L 31.794922 53.685547 L 29.275391 51.693359 C 29.101391 51.555359 29 51.347953 29 51.126953 L 29 31.851562 L 26.869141 30.726562 C 23.248141 28.811563 21 25.084 21 21 C 21 14.935 25.935 10 32 10 z M 32 14 C 29.791 14 28 15.791 28 18 C 28 20.209 29.791 22 32 22 C 34.209 22 36 20.209 36 18 C 36 15.791 34.209 14 32 14 z"/></svg>