<svg xmlns="http://www.w3.org/2000/svg"  viewBox="0 0 64 64" width="48px" height="48px"><path d="M 23 12 C 20.243 12 18 14.243 18 17 L 18 22 L 15 22 C 12.243 22 10 24.243 10 27 L 10 46 C 10 49.309 12.691 52 16 52 L 48 52 C 51.309 52 54 49.309 54 46 L 54 17 C 54 14.243 51.757 12 49 12 L 23 12 z M 23 16 L 49 16 C 49.552 16 50 16.449 50 17 L 50 46 C 50 47.103 49.103 48 48 48 L 21.65625 48 C 21.87825 47.374 22 46.701 22 46 L 22 17 C 22 16.449 22.448 16 23 16 z M 27 20 C 25.896 20 25 20.895 25 22 C 25 23.105 25.896 24 27 24 L 45 24 C 46.104 24 47 23.105 47 22 C 47 20.895 46.104 20 45 20 L 27 20 z M 15 26 L 18 26 L 18 46 C 18 47.103 17.103 48 16 48 C 14.897 48 14 47.103 14 46 L 14 27 C 14 26.449 14.448 26 15 26 z M 27 27 C 25.896 27 25 27.895 25 29 C 25 30.105 25.896 31 27 31 L 45 31 C 46.104 31 47 30.105 47 29 C 47 27.895 46.104 27 45 27 L 27 27 z M 27 34 C 25.895 34 25 34.895 25 36 L 25 43 C 25 44.105 25.895 45 27 45 L 33 45 C 34.105 45 35 44.105 35 43 L 35 36 C 35 34.895 34.105 34 33 34 L 27 34 z M 40 34 C 38.896 34 38 34.895 38 36 C 38 37.105 38.896 38 40 38 L 45 38 C 46.104 38 47 37.105 47 36 C 47 34.895 46.104 34 45 34 L 40 34 z M 40 41 C 38.896 41 38 41.895 38 43 C 38 44.105 38.896 45 40 45 L 45 45 C 46.104 45 47 44.105 47 43 C 47 41.895 46.104 41 45 41 L 40 41 z"/></svg>