<svg xmlns="http://www.w3.org/2000/svg"  viewBox="0 0 64 64" width="48px" height="48px"><path d="M 32 10 C 19.85 10 10 19.85 10 32 C 10 44.15 19.85 54 32 54 C 44.15 54 54 44.15 54 32 C 54 19.85 44.15 10 32 10 z M 32 14 C 41.941 14 50 22.059 50 32 C 50 41.941 41.941 50 32 50 C 22.059 50 14 41.941 14 32 C 14 22.059 22.059 14 32 14 z M 40.962891 22.398438 C 40.320791 22.410684 39.696641 22.731797 39.322266 23.310547 L 29.613281 38.296875 L 24.503906 32.486328 C 23.774906 31.658328 22.508688 31.576641 21.679688 32.306641 C 20.850688 33.036641 20.769047 34.300859 21.498047 35.130859 L 28.353516 42.921875 C 28.735516 43.354875 29.283469 43.599609 29.855469 43.599609 C 29.903469 43.599609 29.952953 43.598703 30.001953 43.595703 C 30.626953 43.549703 31.192203 43.2125 31.533203 42.6875 L 42.679688 25.486328 C 43.279688 24.559328 43.014891 23.321703 42.087891 22.720703 C 41.739141 22.495703 41.34815 22.39109 40.962891 22.398438 z"/></svg>