<svg xmlns="http://www.w3.org/2000/svg"  viewBox="0 0 64 64" width="48px" height="48px"><path d="M 15 13 C 11.686 13 9 15.686 9 19 L 9 45 C 9 48.314 11.686 51 15 51 L 49 51 C 52.314 51 55 48.314 55 45 L 55 19 C 55 15.686 52.314 13 49 13 L 15 13 z M 15 17 L 49 17 C 50.105 17 51 17.895 51 19 L 51 41.433594 L 41.681641 33.054688 C 40.158641 31.684688 37.844219 31.686547 36.324219 33.060547 L 28.402344 40.21875 L 24.609375 36.974609 C 23.108375 35.690609 20.894437 35.695375 19.398438 36.984375 L 13 42.496094 L 13 19 C 13 17.895 13.895 17 15 17 z M 23 23 C 20.791 23 19 24.791 19 27 C 19 29.209 20.791 31 23 31 C 25.209 31 27 29.209 27 27 C 27 24.791 25.209 23 23 23 z"/></svg>