<svg xmlns="http://www.w3.org/2000/svg"  viewBox="0 0 64 64" width="48px" height="48px"><path d="M 44 10 C 40.141 10 37 13.14 37 17 C 37 17.41247 37.042553 17.813957 37.111328 18.207031 L 21.833984 25.845703 C 20.842225 25.306274 19.705938 25 18.5 25 C 14.641 25 11.5 28.14 11.5 32 C 11.5 35.86 14.641 39 18.5 39 C 19.908581 39 21.218937 38.578394 22.318359 37.859375 L 37.033203 46.353516 C 37.013572 46.566652 37 46.781827 37 47 C 37 50.86 40.141 54 44 54 C 47.859 54 51 50.86 51 47 C 51 43.14 47.859 40 44 40 C 41.801349 40 39.839074 41.022294 38.554688 42.613281 L 24.935547 34.751953 C 25.29835 33.906798 25.5 32.97649 25.5 32 C 25.5 30.870753 25.225031 29.806738 24.748047 28.861328 L 38.904297 21.783203 C 40.182218 23.143679 41.991094 24 44 24 C 47.859 24 51 20.86 51 17 C 51 13.14 47.859 10 44 10 z M 44 14 C 45.654 14 47 15.346 47 17 C 47 18.654 45.654 20 44 20 C 42.346 20 41 18.654 41 17 C 41 15.346 42.346 14 44 14 z M 18.5 29 C 20.154 29 21.5 30.346 21.5 32 C 21.5 33.654 20.154 35 18.5 35 C 16.846 35 15.5 33.654 15.5 32 C 15.5 30.346 16.846 29 18.5 29 z M 44 44 C 45.654 44 47 45.346 47 47 C 47 48.654 45.654 50 44 50 C 42.346 50 41 48.654 41 47 C 41 45.346 42.346 44 44 44 z"/></svg>