<svg xmlns="http://www.w3.org/2000/svg"  viewBox="0 0 64 64" width="48px" height="48px"><path d="M 29 7.28125 C 21.044 8.70725 15 15.621 15 23 C 15 28.627 17.776 33.525797 23 36.091797 L 23 47 C 23 51.971 27.029 56 32 56 C 36.971 56 41 51.971 41 47 L 41 36.091797 C 46.224 33.525797 49 28.628 49 23 C 49 15.621 42.956 8.70725 35 7.28125 L 35 19 C 35 20.657 33.657 22 32 22 C 30.343 22 29 20.657 29 19 L 29 7.28125 z M 25 13.308594 L 25 19 C 25 22.866 28.134 26 32 26 C 35.866 26 39 22.866 39 19 L 39 13.308594 C 42.605 15.602594 45 19.625687 45 24.304688 C 45 28.880687 41.697 32.250719 37 33.636719 L 37 47.001953 C 37 49.762953 34.761 52.001953 32 52.001953 C 29.239 52.001953 27 49.762953 27 47.001953 L 27 33.636719 C 22.303 32.249719 19 28.879687 19 24.304688 C 19 19.625688 21.395 15.601594 25 13.308594 z M 32 45 C 30.895 45 30 45.895 30 47 C 30 48.105 30.895 49 32 49 C 33.105 49 34 48.105 34 47 C 34 45.895 33.105 45 32 45 z"/></svg>