<svg xmlns="http://www.w3.org/2000/svg"  viewBox="0 0 64 64" width="48px" height="48px"><path d="M 32 10 C 19.85 10 10 19.85 10 32 C 10 44.15 19.85 54 32 54 C 44.15 54 54 44.15 54 32 C 54 19.85 44.15 10 32 10 z M 32 14 C 41.941 14 50 22.059 50 32 C 50 36.249446 48.517408 40.147389 46.054688 43.226562 L 20.773438 17.945312 C 23.852611 15.482592 27.750554 14 32 14 z M 17.945312 20.773438 L 43.226562 46.054688 C 40.147389 48.517408 36.249446 50 32 50 C 22.059 50 14 41.941 14 32 C 14 27.750554 15.482592 23.852611 17.945312 20.773438 z"/></svg>